# xmcd CD database file
#
# Track frame offsets:
#	150
#	24008
#	48401
#	59218
#	78759
#	102611
#	135892
#	162059
#	174776
#	205882
#	233533
#	269886
#	286685
#	300764
#	310541
#	339691
#	346344
#
# Disc length: 4794 seconds
#
# Revision: 1
# Processed by: cddbd v1.5.2PL0 Copyright (c) Steve Scherf et al.
# Submitted via: CDex 1.51
#
DISCID=d812b811
DTITLE=New Orleans Revival Jazzband - New Orleans Jaz-Parade
DYEAR=2006
DGENRE=Jazz
TTITLE0=You always hurt the one you love
TTITLE1=Mama Inez
TTITLE2=Petite Fleur
TTITLE3=Savoy Blues
TTITLE4=What a wonderful wolrd
TTITLE5=In the Mood
TTITLE6=Its a long way to Tipperary
TTITLE7=Let me savouir
TTITLE8=On ths sunny side of street
TTITLE9=Moonlight ans roses
TTITLE10=What a frien we have in Jesus
TTITLE11=Ice Cream
TTITLE12=Creole Jazz
TTITLE13=I get the Blues
TTITLE14=Rosetta
TTITLE15=Trompeters Abschieds-Song
TTITLE16=Abide wit me
EXTD=YEAR: 2006
EXTT0=
EXTT1=
EXTT2=
EXTT3=
EXTT4=
EXTT5=
EXTT6=
EXTT7=
EXTT8=
EXTT9=
EXTT10=
EXTT11=
EXTT12=
EXTT13=
EXTT14=
EXTT15=
EXTT16=
PLAYORDER=
